<svg viewBox="0 0 60 60" xml:space="preserve" xmlns="http://www.w3.org/2000/svg" enable-background="new 0 0 60 60"><path d="M59 17.499v-14H38a1 1 0 1 0 0 2h15.586l-4.292 4.292c-.033.033-.05.078-.078.115-.037.049-.074.095-.101.15-.011.022-.028.039-.038.062-.017.04-.016.083-.027.125a1.009 1.009 0 0 0-.037.188c-.001.022-.013.045-.013.068v7H31V3.913l5.293 5.293a.997.997 0 0 0 1.414 0 .999.999 0 0 0 0-1.414L30.708.793a1.001 1.001 0 0 0-1.416 0l-6.999 6.999a.999.999 0 1 0 1.414 1.414L29 3.913v13.586H11v-7c0-.024-.012-.046-.013-.069a1.009 1.009 0 0 0-.037-.188c-.011-.042-.01-.085-.027-.125-.01-.023-.027-.04-.038-.062-.027-.054-.064-.1-.101-.149-.028-.037-.046-.082-.078-.115L6.414 5.499H22a1 1 0 1 0 0-2H1v14H0v37.259a4.747 4.747 0 0 0 4.741 4.741h50.518A4.747 4.747 0 0 0 60 54.758V17.499h-1zm-2-12v12h-.5l-5.179-6.906 5.094-5.094H57zm-6 8 3 4.001h-3v-4.001zm-45 4 3-4.001v4.001H6zm-3-12h.586l5.094 5.094-5.18 6.906H3v-12zm55 49.259a2.743 2.743 0 0 1-2.741 2.741H4.741A2.743 2.743 0 0 1 2 54.758V19.499h56v35.259z" fill="#ffffff" class="fill-000000"></path><path d="M42 25.499a1 1 0 0 0-1 1v6c0 6.065-4.935 11-11 11s-11-4.935-11-11v-6a1 1 0 1 0-2 0v6c0 7.168 5.832 13 13 13s13-5.832 13-13v-6a1 1 0 0 0-1-1z" fill="#ffffff" class="fill-000000"></path><path d="M20 26.499a1 1 0 1 0 2 0c0-2.206-1.794-4-4-4s-4 1.794-4 4a1 1 0 1 0 2 0c0-1.103.897-2 2-2s2 .898 2 2zM42 22.499c-2.206 0-4 1.794-4 4a1 1 0 1 0 2 0c0-1.103.897-2 2-2s2 .897 2 2a1 1 0 1 0 2 0c0-2.206-1.794-4-4-4z" fill="#ffffff" class="fill-000000"></path></svg>