<svg viewBox="0 0 100 100" xml:space="preserve" xmlns="http://www.w3.org/2000/svg" enable-background="new 0 0 100 100"><path d="M37.8 83.6c-.8-1.4-1.6-2.7-2.4-4-.3.2-.5.4-.7.6-.3.3-.5.6-.7.9-.4.7-1.3 1-2 .6s-1-1.3-.6-2c.6-1.1 1.4-2 2.4-2.6h.1c-.4-.7-.9-1.4-1.3-2.1-.3.3-.6.6-1 .9-.6.6-1.3 1.1-2 1.6s-1.6.3-2.1-.4-.3-1.6.4-2.1 1.3-1 2-1.6c.2-.2.5-.4.7-.6.1-.1.3-.2.4-.3-.4-.5-.7-1.1-1.1-1.6l-.2.2c-.3.2-.6.5-1 .7-.7.6-1.4 1.2-2 1.9-.5.6-1.5.7-2.1.2-.6-.5-.7-1.5-.2-2.1.7-.9 1.6-1.7 2.5-2.4.3-.3.7-.5 1-.8.1 0 .1-.1.2-.1-.4-.5-.8-1.1-1.1-1.6l-1.2.9c-.9.7-1.6 1.4-2.4 2.2-.5.6-1.5.7-2.1.1-.6-.5-.7-1.5-.1-2.1.9-1 1.8-1.9 2.9-2.6.4-.3.8-.6 1.2-.8-.6-.8-1.1-1.5-1.7-2.2-.1.2-.2.4-.4.5l-.6.5-3 2.6c-.6.5-1.6.5-2.1-.2-.5-.6-.5-1.6.2-2.1 1.1-.9 2.1-1.9 3.2-2.8l.3-.3c.2-.2.5-.3.7-.3-.4-.5-.9-1.1-1.3-1.6-.1.1-.2.2-.4.3l-.6.3c-1.5.9-2.8 1.9-4 3.1l-.1.1c-.6.6-1.5.5-2.1-.1-.6-.6-.5-1.5.1-2.1 1.3-1.3 2.8-2.4 4.4-3.4.3-.2.5-.3.8-.5-.6-.7-1.2-1.4-1.8-2.2-.1.2-.3.3-.5.5-1.4.8-2.7 1.9-3.7 3.1-.5.6-1.5.7-2.1.2-.6-.5-.7-1.5-.2-2.1 1.2-1.5 2.7-2.7 4.4-3.7.1 0 .1-.1.2-.1h.1c-.7-.7-1.3-1.5-2-2.2-.5-.6-1.1-1.2-1.6-1.7l-5.7 4.7c-.7.6-1.1 1.5-1.1 2.4 0 .7.3 1.4.7 2 10.4 12.3 21.7 23.7 34 34.1.9.8 1.8 1.5 2.8 2 .3.2.6.3.9.4-1-2.2-2.1-4.4-3.3-6.6-.6-1.1-1.3-2.4-2-3.6zM94.4 50c-1.5-3.3-8.1-17.1-21.7-33.6-2.1-2.6-5-5.9-8.6-9.7-1.3-1.4-3.5-1.7-5.1-.6-9.8 6.1-19.9 12.8-30.2 20.2-5.7 4.1-11.1 8.2-16.3 12.2l-.3.3c-1.5 1.5-1.6 3.9-.1 5.5 11 11.3 20.5 24 28.3 37.8 2.3 4 4.3 7.9 6.1 11.8 14-7.9 27.2-17.3 39.2-28.1 2.5-2.2 4.9-4.5 7.1-6.7 1.5-1.5 2.4-3.6 2.4-5.7 0-1.2-.2-2.3-.8-3.4zm-10.2-4c.5.7.4 1.6-.3 2.1l-7.1 5.3c-.7.5-1.6.4-2.1-.3s-.4-1.6.3-2.1l7.1-5.3c.7-.5 1.6-.3 2.1.3zM61.3 13.5zM42.2 25.6c.6-.6 1.5-.5 2.1.1 3.9 4.2 7.3 8.8 10.2 13.8-.2-4-.4-7.9-.5-11.9 0-.2 0-.3.1-.5.2-.8 1-1.2 1.8-1 2.1.6 4.3 1.1 6.5 1.3-.5-2.8-1-5.6-1.7-8.4l-.7 1.9c.1.4 0 .9-.2 1.2-.1.2-.3.4-.6.5-.5.3-1.2.2-1.7-.1-.2-.2-.4-.4-.5-.7-.1-.2-.1-.4-.1-.6 0-.2 0-.4.1-.6l1.6-4.7c.1-.3.3-.7.5-1 .2-.4.6-.8 1-1 .4-.2.8-.3 1.2-.3h.1c.4 0 .7.1 1.1.3.2.1.4.2.6.4l3.9 2.9c.6.5.8 1.4.3 2-.5.7-1.4.8-2.1.4l-1.7-1.3c.9 3.5 1.6 7.1 2.1 10.7v.3c-.1.8-.8 1.4-1.6 1.4-2.4-.2-4.7-.6-7.1-1.1.2 4.4.4 8.8.6 13.1 5.6-3.5 11-7.2 16.3-11.1.7-.5 1.6-.3 2.1.3.5.7.3 1.6-.3 2.1-6.1 4.6-12.5 8.8-19 12.8l-.1.1c-.7.3-1.6 0-2-.7-3.2-6.7-7.3-12.9-12.4-18.3-.6-.8-.5-1.7.1-2.3zm15.3-3.1zM18.7 43.8c-.6-.6-.5-1.5.1-2.1 5.2-4.7 10.9-8.9 17-12.4l.1-.1c.7-.4 1.6-.1 2 .7.4.7.1 1.6-.7 2-5.9 3.4-11.5 7.4-16.5 12-.5.5-1.4.5-2-.1zm5.2 5.1c-.6.5-1.6.5-2.1-.2-.5-.6-.5-1.6.2-2.1 5.3-4.5 10.8-8.8 16.4-12.9h.1c.7-.5 1.6-.3 2.1.4s.3 1.6-.4 2.1c-5.6 3.9-11 8.2-16.3 12.7zm1.5 3.9c-.5-.7-.3-1.6.3-2.1 6-4.4 11.9-8.7 17.8-13.1.7-.5 1.6-.3 2.1.3.5.7.3 1.6-.3 2.1-5.9 4.4-11.9 8.7-17.8 13.1-.6.5-1.6.4-2.1-.3zm3.4 4.9c-.5-.6-.5-1.6.2-2.1 5.7-4.9 11.8-9.3 18.2-13.2.7-.4 1.6-.2 2 .5.4.7.2 1.6-.5 2-6.3 3.8-12.2 8.2-17.8 12.9-.6.6-1.5.5-2.1-.1zm4.3 4c-.5-.6-.5-1.6.1-2.1 5.4-4.8 11.3-9.2 17.5-13 .7-.4 1.6-.2 2 .5.4.7.2 1.6-.5 2-6.1 3.7-11.8 7.9-17.1 12.7-.5.5-1.4.5-2-.1zm6 7c-.5-.7-.3-1.6.4-2.1 13-9.1 25.9-18.3 38.6-27.7.6-.4 1.5-.3 2 .3s.4 1.6-.2 2.1C67.1 50.7 54.2 60 41.2 69c-.7.5-1.6.3-2.1-.3zm31.9-11c-3.1 1.6-5.9 3.5-8.6 5.7l-.1.1c-.6.5-1.6.4-2.1-.2s-.4-1.6.2-2.1c2.8-2.3 5.9-4.4 9.1-6.1.7-.4 1.6-.1 2 .6.6.7.3 1.6-.5 2zM44.1 75.6c-.5-.6-.4-1.6.2-2.1 3.7-2.7 7.5-5.2 11.3-7.7.7-.4 1.6-.2 2 .5.4.7.2 1.6-.5 2-3.8 2.5-7.5 5-11.2 7.6-.4.5-1.3.3-1.8-.3zm2.1 5c-.5-.6-.4-1.6.3-2.1 3.9-3.1 8.1-5.8 12.5-8.1.7-.4 1.6-.1 2 .6.4.7.1 1.6-.6 2-4.3 2.2-8.3 4.8-12.1 7.8-.7.5-1.6.4-2.1-.2zm16-2.4c-4.2 2.3-8.2 5-11.8 8-.6.5-1.6.4-2.1-.2-.5-.6-.4-1.6.2-2.1 3.8-3.2 7.9-6 12.3-8.4.7-.4 1.6-.1 2 .6.4.8.1 1.7-.6 2.1zm.9-9.7c-.6-.6-.6-1.5 0-2.1 2.8-2.7 6-5 9.5-6.6.7-.3 1.6 0 2 .7.4.7.1 1.6-.7 2-3.2 1.5-6.2 3.6-8.7 6.1-.6.5-1.6.5-2.1-.1zm13.4-1.6c-3 1.9-5.8 4.2-8.4 6.6l-.1.1c-.6.6-1.5.5-2.1-.1-.6-.6-.5-1.5.1-2.1 2.7-2.6 5.7-4.9 8.8-7 .7-.4 1.6-.3 2.1.4s.3 1.6-.4 2.1zm2.7-8.6c-.6.6-1.5.5-2.1-.1-.6-.6-.5-1.5.1-2.1 2.5-2.3 5.2-4.4 8.1-6.2.7-.4 1.6-.2 2 .5.4.7.2 1.6-.5 2-2.7 1.8-5.3 3.7-7.6 5.9zm10.3-1.4c-2.7 1.8-5.3 3.7-7.8 5.9-.6.5-1.6.5-2.1-.2-.5-.6-.5-1.6.2-2.1 2.6-2.2 5.3-4.2 8.1-6.1.7-.4 1.6-.3 2.1.4.3.7.1 1.7-.5 2.1z" fill="none"></path><path d="M97.2 48.8c-1.6-3.5-8.3-17.5-22.2-34.3-2.2-2.6-5.1-6-8.7-9.8-2.3-2.4-6-2.9-8.9-1.1C47.6 9.7 37.4 16.5 27 24c-5.7 4.1-11.2 8.2-16.4 12.3-3 2.3-3.5 6.6-1.2 9.6L4 50.5c-2.6 2.2-2.9 6-.8 8.6C13.6 71.6 25 83.2 37.4 93.7c1 .9 2.1 1.7 3.3 2.4 1.3.8 2.7 1.2 4.1 1.2h.1c.1.1.2.1.3.2.4.1.8.1 1.2-.1 14.8-8.2 28.6-18 41.1-29.3 2.5-2.3 4.9-4.5 7.2-6.8 2.1-2.1 3.3-4.9 3.3-7.9.2-1.6-.2-3.2-.8-4.6zm-55 44.7c-1-.6-1.9-1.3-2.8-2C27.1 81 15.8 69.6 5.5 57.2c-.5-.6-.7-1.3-.7-2 0-.9.4-1.8 1.1-2.4l5.7-4.7c.5.6 1.1 1.2 1.6 1.7.7.7 1.3 1.4 2 2.2h-.1c-.1 0-.1.1-.2.1-1.7 1-3.1 2.2-4.4 3.7-.5.6-.4 1.6.2 2.1.6.5 1.6.4 2.1-.2 1-1.3 2.3-2.3 3.7-3.1.2-.1.4-.3.5-.5.6.7 1.2 1.4 1.8 2.2-.3.1-.5.3-.8.5-1.6 1-3.1 2.1-4.4 3.4-.6.6-.6 1.5-.1 2.1.6.6 1.5.6 2.1.1l.1-.1c1.2-1.2 2.6-2.2 4-3.1l.6-.3c.1-.1.3-.2.4-.3.4.5.9 1.1 1.3 1.6-.3 0-.5.2-.7.3l-.3.3c-1.1.9-2.1 1.9-3.2 2.8-.6.5-.7 1.5-.2 2.1.5.6 1.5.7 2.1.2l3-2.6.6-.5c.2-.1.3-.3.4-.5.6.7 1.1 1.5 1.7 2.2-.4.3-.8.5-1.2.8-1 .8-2 1.7-2.9 2.6-.5.6-.5 1.6.1 2.1s1.5.5 2.1-.1c.7-.8 1.5-1.5 2.4-2.2l1.2-.9c.4.5.8 1.1 1.1 1.6-.1 0-.1.1-.2.1-.3.2-.7.5-1 .8-.9.7-1.7 1.5-2.5 2.4-.5.6-.4 1.6.2 2.1.6.5 1.6.4 2.1-.2.6-.7 1.2-1.3 2-1.9.3-.3.6-.5 1-.7.1 0 .1-.1.2-.2.4.5.7 1.1 1.1 1.6-.1.1-.3.1-.4.3-.2.2-.5.4-.7.6-.6.6-1.3 1.1-2 1.6s-.8 1.4-.4 2.1c.5.7 1.4.8 2.1.4.7-.5 1.4-1 2-1.6.3-.3.7-.6 1-.9.4.7.9 1.4 1.3 2.1h-.1c-1 .7-1.8 1.6-2.4 2.6-.4.7-.1 1.6.6 2 .7.4 1.6.1 2-.6.2-.3.4-.7.7-.9.2-.2.4-.4.7-.6.8 1.3 1.6 2.7 2.4 4 .7 1.3 1.4 2.5 2 3.7 1.2 2.2 2.3 4.4 3.3 6.6-.4 0-.7-.2-1-.3zm50.6-34.4c-2.3 2.2-4.6 4.5-7.1 6.7-12 10.8-25.2 20.2-39.3 28.1-1.8-3.8-3.8-7.8-6.1-11.8C32.5 68.3 23 55.6 12 44.3c-1.5-1.5-1.5-4 .1-5.5l.3-.3c5.2-4.1 10.6-8.1 16.3-12.2C39.1 18.9 49.2 12.2 59 6.1c1.6-1 3.8-.8 5.1.6 3.6 3.8 6.5 7.1 8.6 9.7C86.4 32.9 92.9 46.7 94.4 50v.1c.5 1 .7 2.2.7 3.3.1 2.1-.8 4.2-2.3 5.7z" fill="#ffffff" class="fill-000000"></path><path d="M38 29.8c-.4-.7-1.3-1-2-.7l-.1.1c-6.1 3.5-11.8 7.7-17 12.4-.6.6-.6 1.5-.1 2.1.6.6 1.5.6 2.1.1 5-4.6 10.6-8.6 16.5-12 .7-.3 1-1.2.6-2zM40.6 34.1c-.5-.7-1.4-.9-2.1-.4h-.1c-5.7 4.1-11.1 8.4-16.4 12.9-.6.5-.7 1.5-.2 2.1.5.6 1.5.7 2.1.2 5.2-4.5 10.6-8.7 16.2-12.7.8-.5.9-1.5.5-2.1zM45.7 38c-.5-.7-1.4-.8-2.1-.3-5.9 4.4-11.9 8.7-17.8 13.1-.7.5-.8 1.4-.3 2.1.5.7 1.4.8 2.1.3 5.9-4.4 11.9-8.7 17.8-13.1.6-.5.8-1.4.3-2.1zM49.2 42.8c-.4-.7-1.3-.9-2-.5-6.4 3.9-12.5 8.3-18.2 13.2-.6.5-.7 1.5-.2 2.1.5.6 1.5.7 2.1.2 5.6-4.8 11.5-9.1 17.8-12.9.7-.5.9-1.4.5-2.1zM52.8 47.1c-.4-.7-1.3-.9-2-.5-6.2 3.8-12.1 8.1-17.5 13-.6.5-.7 1.5-.1 2.1.5.6 1.5.7 2.1.1 5.3-4.7 11-9 17.1-12.7.6-.4.8-1.3.4-2zM80.1 39.2c-.5-.6-1.4-.7-2-.3-12.7 9.4-25.6 18.7-38.6 27.7-.7.5-.8 1.4-.4 2.1.5.7 1.4.8 2.1.4 13-9.1 25.9-18.3 38.6-27.8.7-.6.8-1.5.3-2.1zM57.3 68.3c.7-.4.9-1.4.5-2-.4-.7-1.4-.9-2-.5-3.8 2.5-7.6 5.1-11.3 7.7-.6.5-.8 1.4-.2 2.1.5.6 1.3.7 2 .3 3.5-2.6 7.2-5.1 11-7.6zM60.3 73c.7-.4 1-1.3.6-2s-1.3-1-2-.6c-4.4 2.3-8.6 5-12.5 8.1-.6.5-.8 1.4-.3 2.1.5.6 1.4.8 2.1.3 3.8-3 7.9-5.6 12.1-7.9zM60.8 75.5c-4.4 2.4-8.5 5.2-12.4 8.4-.6.5-.7 1.4-.2 2.1.5.6 1.4.7 2.1.2 3.7-3 7.6-5.7 11.8-8 .7-.4 1-1.3.6-2-.3-.8-1.2-1.1-1.9-.7zM69.7 55c-3.2 1.7-6.3 3.7-9.1 6.1-.6.5-.8 1.4-.2 2.1s1.4.8 2.1.2l.1-.1c2.6-2.2 5.5-4.1 8.6-5.7.7-.4 1-1.3.6-2-.5-.7-1.4-1-2.1-.6zM74.6 60.4c-.4-.7-1.2-1-2-.7-3.5 1.7-6.7 3.9-9.5 6.6-.6.6-.6 1.5 0 2.1.6.6 1.5.6 2.1 0 2.5-2.5 5.5-4.5 8.7-6.1.7-.2 1-1.1.7-1.9zM74.9 64.4c-3.1 2-6.1 4.4-8.8 7-.6.6-.7 1.5-.1 2.1.6.6 1.5.7 2.1.1l.1-.1c2.6-2.5 5.4-4.7 8.4-6.6.7-.4.9-1.4.4-2.1-.5-.7-1.5-.9-2.1-.4zM74.8 53.1c.5.7 1.4.8 2.1.3l7.1-5.3c.7-.5.8-1.4.3-2.1-.5-.7-1.4-.8-2.1-.3L75.1 51c-.7.5-.8 1.5-.3 2.1zM87.3 50.4c-.4-.7-1.3-.9-2-.5-2.9 1.8-5.6 3.9-8.1 6.2-.6.6-.6 1.5-.1 2.1.6.6 1.5.6 2.1.1 2.4-2.2 5-4.2 7.7-5.9.7-.4.9-1.3.4-2zM87.8 54.4c-2.8 1.9-5.5 3.9-8.1 6.1-.6.5-.7 1.5-.2 2.1.5.6 1.5.7 2.1.2 2.5-2.1 5.1-4.1 7.8-5.9.7-.4.9-1.4.4-2.1-.4-.6-1.3-.8-2-.4z" fill="#ffffff" class="fill-000000"></path><path d="M61.3 13.5h0" fill="none" stroke="#ffffff" stroke-width="0" stroke-linecap="round" stroke-linejoin="round" class="stroke-000000"></path><path d="M57.5 22.5zM42.1 27.8c5.1 5.4 9.2 11.6 12.4 18.3.3.7 1.2 1.1 2 .7 0 0 .1 0 .1-.1 6.5-4 12.9-8.3 19-12.8.7-.5.8-1.4.3-2.1-.5-.7-1.4-.8-2.1-.3-5.3 3.9-10.7 7.6-16.3 11.1-.2-4.4-.4-8.8-.6-13.1 2.3.6 4.7.9 7.1 1.1.8.1 1.5-.5 1.6-1.4v-.3c-.5-3.6-1.3-7.2-2.1-10.7l1.7 1.3c.7.5 1.6.3 2.1-.4s.3-1.6-.3-2l-4-2.9c-.2-.1-.4-.3-.6-.4-.3-.2-.7-.3-1.1-.3h-.1c-.4 0-.8.1-1.2.3-.4.3-.8.6-1 1-.2.3-.3.6-.5 1l-1.6 4.7c-.1.2-.1.4-.1.6 0 .2 0 .4.1.6.1.3.3.5.5.7.5.4 1.1.4 1.7.1.2-.1.4-.3.6-.5.2-.4.3-.8.2-1.2l.6-1.9c.7 2.8 1.3 5.6 1.7 8.4-2.2-.3-4.4-.7-6.5-1.3-.8-.2-1.6.2-1.8 1 0 .2-.1.3-.1.5.2 4 .3 7.9.5 11.9-2.8-5-6.3-9.6-10.2-13.8-.6-.6-1.5-.6-2.1-.1-.4.7-.5 1.6.1 2.3 0-.1 0-.1 0 0z" fill="#ffffff" class="fill-000000"></path></svg>