<svg viewBox="0 0 91 91" xml:space="preserve" xmlns="http://www.w3.org/2000/svg"><path d="M42.762 19.428h-1.701v6.887c-12.799.88-22.949 11.545-22.949 24.563 0 13.592 11.059 24.65 24.65 24.65 13.016 0 23.682-10.152 24.561-22.949h6.887v-1.701c-.001-17.342-14.108-31.45-31.448-31.45zm0 52.699c-11.719 0-21.25-9.533-21.25-21.25 0-11.145 8.623-20.313 19.549-21.182v22.883h22.881c-.87 10.925-10.036 19.549-21.18 19.549zm24.646-22.949H44.461V22.879c14.115.848 25.449 12.184 26.297 26.299h-3.35z" fill="#ffffff" class="fill-000000"></path></svg>