<svg overflow="hidden" viewBox="0 0 96 96" xmlns="http://www.w3.org/2000/svg"><circle cx="24" cy="30.8" r="9" fill="#ffffff" class="fill-000000"></circle><circle cx="72" cy="30.8" r="9" fill="#ffffff" class="fill-000000"></circle><path d="M66 74.2v-9c0-1.4-.6-2.8-1.8-3.6-2.4-2-5.6-3.4-8.8-4.2-2.2-.6-4.8-1.2-7.4-1.2-2.4 0-5 .4-7.4 1.2-3.2.8-6.2 2.4-8.8 4.2-1.2 1-1.8 2.2-1.8 3.6v9h36Z" fill="#ffffff" class="fill-000000"></path><circle cx="48" cy="44.8" r="9" fill="#ffffff" class="fill-000000"></circle><path d="M88.2 47.6c-2.4-2-5.6-3.4-8.8-4.2-2.2-.6-4.8-1.2-7.4-1.2-2.4 0-5 .4-7.4 1.2-1.2.4-2.4.8-3.6 1.4v.2c0 3.4-1.4 6.6-3.6 8.8 3.8 1.2 6.8 2.8 9.2 4.6.6.6 1.2 1 1.6 1.8H90v-9c0-1.4-.6-2.8-1.8-3.6ZM29.4 58.4c2.8-2 6-3.6 9.2-4.6-2.2-2.4-3.6-5.4-3.6-8.8v-.4c-1.2-.4-2.4-1-3.6-1.2-2.2-.6-4.8-1.2-7.4-1.2-2.4 0-5 .4-7.4 1.2-3.2 1-6.2 2.4-8.8 4.2-1.2.8-1.8 2.2-1.8 3.6v9h21.6c.6-.8 1-1.2 1.8-1.8Z" fill="#ffffff" class="fill-000000"></path></svg>